<svg width="50" height="50" viewBox="0 0 50 50" fill="none" xmlns="http://www.w3.org/2000/svg">
<g clip-path="url(#clip0_408_2137)">
<path d="M41.5999 24.7977L39.2607 20.7462L39.2156 20.6679L36.8724 16.6094C36.8433 16.5585 36.7887 16.5273 36.7305 16.5273H36.6686C36.6099 16.5273 36.5558 16.5585 36.5266 16.6094L34.1617 20.7048C34.1473 20.7298 34.1395 20.7581 34.1395 20.7868C34.1395 20.8155 34.1473 20.8447 34.1617 20.8697L34.1855 20.9107L36.4885 24.8995L34.1326 28.9805L34.1034 29.031L31.7655 33.0804L29.5573 36.9047C29.4112 37.1578 29.4112 37.472 29.5573 37.725L31.2114 40.5904C31.3599 40.8472 31.6253 41.0006 31.9218 41.0006C32.2184 41.0006 32.4841 40.8472 32.6322 40.5904L34.4615 37.4219L36.8285 33.3224L39.2115 29.195L39.232 29.1589L41.5999 25.0582C41.6462 24.9774 41.6458 24.8781 41.5999 24.7981V24.7977Z" fill="#FF4D00"/>
<path d="M26.578 16.9371C26.4295 16.6804 26.1641 16.527 25.8676 16.527H9.18649C8.88995 16.527 8.62417 16.6804 8.4761 16.9371C8.32763 17.1939 8.32763 17.5007 8.4761 17.7574L10.296 20.9095L12.6905 25.0574L15.0788 29.1938L17.3847 33.1879L19.8046 37.3793C19.8337 37.4302 19.8883 37.4614 19.9465 37.4614C20.0048 37.4614 20.0593 37.4302 20.0885 37.3793L22.4764 33.2429C22.5055 33.192 22.5055 33.1297 22.4764 33.0788L20.1389 29.0298L20.0565 28.887L17.7506 24.8933L15.6403 21.2376C15.5977 21.1634 15.626 21.0982 15.6403 21.0736C15.6547 21.049 15.6969 20.9915 15.7822 20.9915H19.8009C19.8592 20.9915 19.9137 21.0231 19.9428 21.0736L21.5925 23.9303C21.741 24.1871 22.0063 24.3405 22.3029 24.3405C22.5994 24.3405 22.8648 24.1871 23.0133 23.9303L24.7573 20.9099L24.8426 20.7623L26.5775 17.7574C26.7256 17.5007 26.7256 17.1939 26.5775 16.9371H26.578Z" fill="#FF4D00"/>
<path d="M32.0274 24.8933C31.9983 24.8425 31.9441 24.8113 31.8855 24.8113H27.0612C27.0025 24.8113 26.9484 24.8425 26.9193 24.8933L24.5818 28.9424L24.5309 29.0297L22.1935 33.0788L19.8055 37.2152C19.7764 37.2661 19.7764 37.3284 19.8055 37.3793L21.6492 40.5728C21.7977 40.8295 22.063 40.9829 22.3596 40.9829C22.6561 40.9829 22.9219 40.8295 23.07 40.5728L24.8894 37.4207L27.2778 33.2843L29.639 29.1942L29.6751 29.1319L32.0089 25.0894L32.0274 25.0574C32.0565 25.0065 32.0565 24.9442 32.0274 24.8933Z" fill="#FF4D00"/>
<path d="M38.9517 12.2756L37.2975 9.41028C37.149 9.15352 36.8836 9.00012 36.5871 9.00012C36.2906 9.00012 36.0248 9.15352 35.8767 9.41028L34.0573 12.5623L31.6689 16.6988L29.3076 20.7888L29.2715 20.8512L26.9193 24.9257C26.8902 24.9765 26.8902 25.0389 26.9193 25.0897C26.9484 25.1406 27.003 25.1718 27.0612 25.1718H31.8855C31.9441 25.1718 31.9983 25.1406 32.0274 25.0897L34.3649 21.0407L34.4157 20.9533L36.7532 16.9042L38.9517 13.0959C39.0977 12.8429 39.0977 12.5287 38.9517 12.2756Z" fill="#FF4D00"/>
</g>
<defs>
<clipPath id="clip0_408_2137">
<rect width="33.269" height="32" fill="white" transform="translate(8.36523 9)"/>
</clipPath>
</defs>
</svg>
